<svg viewBox="0 0 196 92" fill="none" xmlns="http://www.w3.org/2000/svg">
<path d="M64.2351 19.884C64.2351 17.796 64.6071 15.972 65.3511 14.412C66.1191 12.852 67.1631 11.652 68.4831 10.812C69.8031 9.972 71.2671 9.552 72.8751 9.552C74.1711 9.552 75.3231 9.828 76.3311 10.38C77.3631 10.908 78.1671 11.64 78.7431 12.576V3.36H85.8351V30H78.7431V27.192C78.1911 28.128 77.4111 28.872 76.4031 29.424C75.3951 29.976 74.2071 30.252 72.8391 30.252C71.2311 30.252 69.7671 29.832 68.4471 28.992C67.1511 28.152 66.1191 26.952 65.3511 25.392C64.6071 23.808 64.2351 21.972 64.2351 19.884ZM78.7791 19.884C78.7791 18.588 78.4191 17.568 77.6991 16.824C77.0031 16.08 76.1391 15.708 75.1071 15.708C74.0511 15.708 73.1751 16.08 72.4791 16.824C71.7831 17.544 71.4351 18.564 71.4351 19.884C71.4351 21.18 71.7831 22.212 72.4791 22.98C73.1751 23.724 74.0511 24.096 75.1071 24.096C76.1391 24.096 77.0031 23.724 77.6991 22.98C78.4191 22.236 78.7791 21.204 78.7791 19.884ZM88.7038 19.884C88.7038 17.796 89.0758 15.972 89.8198 14.412C90.5878 12.852 91.6198 11.652 92.9158 10.812C94.2358 9.972 95.6998 9.552 97.3078 9.552C98.6998 9.552 99.8998 9.828 100.908 10.38C101.916 10.932 102.696 11.676 103.248 12.612V9.804H110.304V30H103.248V27.192C102.696 28.128 101.904 28.872 100.872 29.424C99.8638 29.976 98.6758 30.252 97.3078 30.252C95.6998 30.252 94.2358 29.832 92.9158 28.992C91.6198 28.152 90.5878 26.952 89.8198 25.392C89.0758 23.808 88.7038 21.972 88.7038 19.884ZM103.248 19.884C103.248 18.588 102.888 17.568 102.168 16.824C101.472 16.08 100.608 15.708 99.5758 15.708C98.5198 15.708 97.6438 16.08 96.9478 16.824C96.2518 17.544 95.9038 18.564 95.9038 19.884C95.9038 21.18 96.2518 22.212 96.9478 22.98C97.6438 23.724 98.5198 24.096 99.5758 24.096C100.608 24.096 101.472 23.724 102.168 22.98C102.888 22.236 103.248 21.204 103.248 19.884ZM117.889 7.932C116.641 7.932 115.633 7.596 114.865 6.924C114.121 6.228 113.749 5.364 113.749 4.332C113.749 3.276 114.121 2.4 114.865 1.704C115.633 1.008 116.641 0.659998 117.889 0.659998C119.113 0.659998 120.097 1.008 120.841 1.704C121.609 2.4 121.993 3.276 121.993 4.332C121.993 5.364 121.609 6.228 120.841 6.924C120.097 7.596 119.113 7.932 117.889 7.932ZM121.381 9.804V30H114.325V9.804H121.381ZM124.247 19.884C124.247 17.796 124.619 15.972 125.363 14.412C126.131 12.852 127.163 11.652 128.459 10.812C129.779 9.972 131.243 9.552 132.851 9.552C134.243 9.552 135.443 9.828 136.451 10.38C137.459 10.932 138.239 11.676 138.791 12.612V9.804H145.847V30H138.791V27.192C138.239 28.128 137.447 28.872 136.415 29.424C135.407 29.976 134.219 30.252 132.851 30.252C131.243 30.252 129.779 29.832 128.459 28.992C127.163 28.152 126.131 26.952 125.363 25.392C124.619 23.808 124.247 21.972 124.247 19.884ZM138.791 19.884C138.791 18.588 138.431 17.568 137.711 16.824C137.015 16.08 136.151 15.708 135.119 15.708C134.063 15.708 133.187 16.08 132.491 16.824C131.795 17.544 131.447 18.564 131.447 19.884C131.447 21.18 131.795 22.212 132.491 22.98C133.187 23.724 134.063 24.096 135.119 24.096C136.151 24.096 137.015 23.724 137.711 22.98C138.431 22.236 138.791 21.204 138.791 19.884ZM163.08 9.624C165.408 9.624 167.256 10.404 168.624 11.964C169.992 13.5 170.676 15.588 170.676 18.228V30H163.62V19.164C163.62 18.012 163.32 17.112 162.72 16.464C162.12 15.792 161.316 15.456 160.308 15.456C159.252 15.456 158.424 15.792 157.824 16.464C157.224 17.112 156.924 18.012 156.924 19.164V30H149.868V9.804H156.924V12.684C157.548 11.772 158.388 11.04 159.444 10.488C160.5 9.912 161.712 9.624 163.08 9.624ZM173.395 19.884C173.395 17.796 173.767 15.972 174.511 14.412C175.279 12.852 176.311 11.652 177.607 10.812C178.927 9.972 180.391 9.552 181.999 9.552C183.391 9.552 184.591 9.828 185.599 10.38C186.607 10.932 187.387 11.676 187.939 12.612V9.804H194.995V30H187.939V27.192C187.387 28.128 186.595 28.872 185.563 29.424C184.555 29.976 183.367 30.252 181.999 30.252C180.391 30.252 178.927 29.832 177.607 28.992C176.311 28.152 175.279 26.952 174.511 25.392C173.767 23.808 173.395 21.972 173.395 19.884ZM187.939 19.884C187.939 18.588 187.579 17.568 186.859 16.824C186.163 16.08 185.299 15.708 184.267 15.708C183.211 15.708 182.335 16.08 181.639 16.824C180.943 17.544 180.595 18.564 180.595 19.884C180.595 21.18 180.943 22.212 181.639 22.98C182.335 23.724 183.211 24.096 184.267 24.096C185.299 24.096 186.163 23.724 186.859 22.98C187.579 22.236 187.939 21.204 187.939 19.884ZM10.077 56.252C8.25303 56.252 6.62103 55.952 5.18103 55.352C3.76503 54.728 2.63703 53.888 1.79703 52.832C0.981031 51.752 0.525031 50.54 0.429031 49.196H7.26903C7.36503 49.844 7.66503 50.348 8.16903 50.708C8.67303 51.068 9.29703 51.248 10.041 51.248C10.617 51.248 11.073 51.128 11.409 50.888C11.745 50.648 11.913 50.336 11.913 49.952C11.913 49.448 11.637 49.076 11.085 48.836C10.533 48.596 9.62103 48.332 8.34903 48.044C6.90903 47.756 5.70903 47.432 4.74903 47.072C3.78903 46.712 2.94903 46.124 2.22903 45.308C1.53303 44.492 1.18503 43.388 1.18503 41.996C1.18503 40.796 1.50903 39.716 2.15703 38.756C2.80503 37.772 3.75303 36.992 5.00103 36.416C6.27303 35.84 7.79703 35.552 9.57303 35.552C12.213 35.552 14.289 36.2 15.801 37.496C17.313 38.792 18.189 40.496 18.429 42.608H12.057C11.937 41.96 11.649 41.468 11.193 41.132C10.761 40.772 10.173 40.592 9.42903 40.592C8.85303 40.592 8.40903 40.7 8.09703 40.916C7.80903 41.132 7.66503 41.432 7.66503 41.816C7.66503 42.296 7.94103 42.668 8.49303 42.932C9.04503 43.172 9.93303 43.424 11.157 43.688C12.621 44 13.833 44.348 14.793 44.732C15.777 45.116 16.629 45.74 17.349 46.604C18.093 47.444 18.465 48.596 18.465 50.06C18.465 51.236 18.117 52.292 17.421 53.228C16.749 54.164 15.777 54.908 14.505 55.46C13.257 55.988 11.781 56.252 10.077 56.252ZM48.322 35.624C50.866 35.624 52.858 36.392 54.298 37.928C55.762 39.464 56.494 41.564 56.494 44.228V56H49.438V45.164C49.438 44.084 49.138 43.244 48.538 42.644C47.938 42.044 47.122 41.744 46.09 41.744C45.058 41.744 44.242 42.044 43.642 42.644C43.042 43.244 42.742 44.084 42.742 45.164V56H35.686V45.164C35.686 44.084 35.386 43.244 34.786 42.644C34.21 42.044 33.406 41.744 32.374 41.744C31.318 41.744 30.49 42.044 29.89 42.644C29.29 43.244 28.99 44.084 28.99 45.164V56H21.934V35.804H28.99V38.468C29.614 37.604 30.418 36.92 31.402 36.416C32.41 35.888 33.562 35.624 34.858 35.624C36.346 35.624 37.666 35.948 38.818 36.596C39.994 37.244 40.918 38.156 41.59 39.332C42.31 38.228 43.258 37.34 44.434 36.668C45.61 35.972 46.906 35.624 48.322 35.624ZM59.2078 45.884C59.2078 43.796 59.5798 41.972 60.3238 40.412C61.0918 38.852 62.1238 37.652 63.4198 36.812C64.7398 35.972 66.2038 35.552 67.8118 35.552C69.2038 35.552 70.4038 35.828 71.4118 36.38C72.4198 36.932 73.1998 37.676 73.7518 38.612V35.804H80.8078V56H73.7518V53.192C73.1998 54.128 72.4078 54.872 71.3758 55.424C70.3678 55.976 69.1798 56.252 67.8118 56.252C66.2038 56.252 64.7398 55.832 63.4198 54.992C62.1238 54.152 61.0918 52.952 60.3238 51.392C59.5798 49.808 59.2078 47.972 59.2078 45.884ZM73.7518 45.884C73.7518 44.588 73.3918 43.568 72.6718 42.824C71.9758 42.08 71.1118 41.708 70.0798 41.708C69.0238 41.708 68.1478 42.08 67.4518 42.824C66.7558 43.544 66.4078 44.564 66.4078 45.884C66.4078 47.18 66.7558 48.212 67.4518 48.98C68.1478 49.724 69.0238 50.096 70.0798 50.096C71.1118 50.096 71.9758 49.724 72.6718 48.98C73.3918 48.236 73.7518 47.204 73.7518 45.884ZM91.8845 39.368C92.6765 38.216 93.6365 37.304 94.7645 36.632C95.8925 35.96 97.1045 35.624 98.4005 35.624V43.148H96.4205C94.8845 43.148 93.7445 43.448 93.0005 44.048C92.2565 44.648 91.8845 45.692 91.8845 47.18V56H84.8285V35.804H91.8845V39.368ZM99.7781 45.884C99.7781 43.796 100.15 41.972 100.894 40.412C101.662 38.852 102.694 37.652 103.99 36.812C105.31 35.972 106.774 35.552 108.382 35.552C109.774 35.552 110.974 35.828 111.982 36.38C112.99 36.932 113.77 37.676 114.322 38.612V35.804H121.378V56H114.322V53.192C113.77 54.128 112.978 54.872 111.946 55.424C110.938 55.976 109.75 56.252 108.382 56.252C106.774 56.252 105.31 55.832 103.99 54.992C102.694 54.152 101.662 52.952 100.894 51.392C100.15 49.808 99.7781 47.972 99.7781 45.884ZM114.322 45.884C114.322 44.588 113.962 43.568 113.242 42.824C112.546 42.08 111.682 41.708 110.65 41.708C109.594 41.708 108.718 42.08 108.022 42.824C107.326 43.544 106.978 44.564 106.978 45.884C106.978 47.18 107.326 48.212 108.022 48.98C108.718 49.724 109.594 50.096 110.65 50.096C111.682 50.096 112.546 49.724 113.242 48.98C113.962 48.236 114.322 47.204 114.322 45.884ZM138.611 35.624C140.939 35.624 142.787 36.404 144.155 37.964C145.523 39.5 146.207 41.588 146.207 44.228V56H139.151V45.164C139.151 44.012 138.851 43.112 138.251 42.464C137.651 41.792 136.847 41.456 135.839 41.456C134.783 41.456 133.955 41.792 133.355 42.464C132.755 43.112 132.455 44.012 132.455 45.164V56H125.399V35.804H132.455V38.684C133.079 37.772 133.919 37.04 134.975 36.488C136.031 35.912 137.243 35.624 138.611 35.624ZM148.927 45.884C148.927 43.796 149.299 41.972 150.043 40.412C150.811 38.852 151.855 37.652 153.175 36.812C154.495 35.972 155.959 35.552 157.566 35.552C158.863 35.552 160.015 35.828 161.023 36.38C162.055 36.908 162.859 37.64 163.435 38.576V29.36H170.527V56H163.435V53.192C162.883 54.128 162.103 54.872 161.095 55.424C160.087 55.976 158.899 56.252 157.531 56.252C155.923 56.252 154.459 55.832 153.139 54.992C151.843 54.152 150.811 52.952 150.043 51.392C149.299 49.808 148.927 47.972 148.927 45.884ZM163.471 45.884C163.471 44.588 163.111 43.568 162.391 42.824C161.695 42.08 160.831 41.708 159.799 41.708C158.743 41.708 157.867 42.08 157.171 42.824C156.475 43.544 156.127 44.564 156.127 45.884C156.127 47.18 156.475 48.212 157.171 48.98C157.867 49.724 158.743 50.096 159.799 50.096C160.831 50.096 161.695 49.724 162.391 48.98C163.111 48.236 163.471 47.204 163.471 45.884ZM173.395 45.884C173.395 43.796 173.767 41.972 174.511 40.412C175.279 38.852 176.311 37.652 177.607 36.812C178.927 35.972 180.391 35.552 181.999 35.552C183.391 35.552 184.591 35.828 185.599 36.38C186.607 36.932 187.387 37.676 187.939 38.612V35.804H194.995V56H187.939V53.192C187.387 54.128 186.595 54.872 185.563 55.424C184.555 55.976 183.367 56.252 181.999 56.252C180.391 56.252 178.927 55.832 177.607 54.992C176.311 54.152 175.279 52.952 174.511 51.392C173.767 49.808 173.395 47.972 173.395 45.884ZM187.939 45.884C187.939 44.588 187.579 43.568 186.859 42.824C186.163 42.08 185.299 41.708 184.267 41.708C183.211 41.708 182.335 42.08 181.639 42.824C180.943 43.544 180.595 44.564 180.595 45.884C180.595 47.18 180.943 48.212 181.639 48.98C182.335 49.724 183.211 50.096 184.267 50.096C185.299 50.096 186.163 49.724 186.859 48.98C187.579 48.236 187.939 47.204 187.939 45.884ZM37.4016 61.552C38.7696 61.552 39.9576 61.828 40.9656 62.38C41.9976 62.932 42.7896 63.676 43.3416 64.612V61.804H50.3976V81.784C50.3976 83.68 50.0376 85.384 49.3176 86.896C48.5976 88.432 47.4696 89.656 45.9336 90.568C44.4216 91.48 42.5016 91.936 40.1736 91.936C37.0536 91.936 34.5576 91.204 32.6856 89.74C30.8136 88.276 29.7456 86.284 29.4816 83.764H36.4296C36.5736 84.412 36.9336 84.916 37.5096 85.276C38.0856 85.636 38.8296 85.816 39.7416 85.816C42.1416 85.816 43.3416 84.472 43.3416 81.784V79.192C42.7896 80.128 41.9976 80.872 40.9656 81.424C39.9576 81.976 38.7696 82.252 37.4016 82.252C35.7936 82.252 34.3296 81.832 33.0096 80.992C31.7136 80.152 30.6816 78.952 29.9136 77.392C29.1696 75.808 28.7976 73.972 28.7976 71.884C28.7976 69.796 29.1696 67.972 29.9136 66.412C30.6816 64.852 31.7136 63.652 33.0096 62.812C34.3296 61.972 35.7936 61.552 37.4016 61.552ZM43.3416 71.884C43.3416 70.588 42.9816 69.568 42.2616 68.824C41.5656 68.08 40.7016 67.708 39.6696 67.708C38.6136 67.708 37.7376 68.08 37.0416 68.824C36.3456 69.544 35.9976 70.564 35.9976 71.884C35.9976 73.18 36.3456 74.212 37.0416 74.98C37.7376 75.724 38.6136 76.096 39.6696 76.096C40.7016 76.096 41.5656 75.724 42.2616 74.98C42.9816 74.236 43.3416 73.204 43.3416 71.884ZM61.4743 65.368C62.2663 64.216 63.2263 63.304 64.3543 62.632C65.4823 61.96 66.6943 61.624 67.9903 61.624V69.148H66.0103C64.4743 69.148 63.3343 69.448 62.5903 70.048C61.8463 70.648 61.4743 71.692 61.4743 73.18V82H54.4183V61.804H61.4743V65.368ZM69.3679 71.884C69.3679 69.796 69.7399 67.972 70.4839 66.412C71.2519 64.852 72.2839 63.652 73.5799 62.812C74.8999 61.972 76.3639 61.552 77.9719 61.552C79.3639 61.552 80.5639 61.828 81.5719 62.38C82.5799 62.932 83.3599 63.676 83.9119 64.612V61.804H90.9679V82H83.9119V79.192C83.3599 80.128 82.5679 80.872 81.5359 81.424C80.5279 81.976 79.3399 82.252 77.9719 82.252C76.3639 82.252 74.8999 81.832 73.5799 80.992C72.2839 80.152 71.2519 78.952 70.4839 77.392C69.7399 75.808 69.3679 73.972 69.3679 71.884ZM83.9119 71.884C83.9119 70.588 83.5519 69.568 82.8319 68.824C82.1359 68.08 81.2719 67.708 80.2399 67.708C79.1839 67.708 78.3079 68.08 77.6119 68.824C76.9159 69.544 76.5679 70.564 76.5679 71.884C76.5679 73.18 76.9159 74.212 77.6119 74.98C78.3079 75.724 79.1839 76.096 80.2399 76.096C81.2719 76.096 82.1359 75.724 82.8319 74.98C83.5519 74.236 83.9119 73.204 83.9119 71.884ZM108.201 61.624C110.529 61.624 112.377 62.404 113.745 63.964C115.113 65.5 115.797 67.588 115.797 70.228V82H108.741V71.164C108.741 70.012 108.441 69.112 107.841 68.464C107.241 67.792 106.437 67.456 105.429 67.456C104.373 67.456 103.545 67.792 102.945 68.464C102.345 69.112 102.045 70.012 102.045 71.164V82H94.9887V61.804H102.045V64.684C102.669 63.772 103.509 63.04 104.565 62.488C105.621 61.912 106.833 61.624 108.201 61.624ZM118.516 71.884C118.516 69.796 118.948 67.972 119.812 66.412C120.676 64.852 121.876 63.652 123.412 62.812C124.972 61.972 126.748 61.552 128.74 61.552C131.308 61.552 133.468 62.26 135.22 63.676C136.972 65.068 138.1 67.024 138.604 69.544H131.116C130.684 68.224 129.844 67.564 128.596 67.564C127.708 67.564 127 67.936 126.472 68.68C125.968 69.4 125.716 70.468 125.716 71.884C125.716 73.3 125.968 74.38 126.472 75.124C127 75.868 127.708 76.24 128.596 76.24C129.868 76.24 130.708 75.58 131.116 74.26H138.604C138.1 76.756 136.972 78.712 135.22 80.128C133.468 81.544 131.308 82.252 128.74 82.252C126.748 82.252 124.972 81.832 123.412 80.992C121.876 80.152 120.676 78.952 119.812 77.392C118.948 75.832 118.516 73.996 118.516 71.884ZM160.832 71.668C160.832 72.22 160.796 72.772 160.724 73.324H147.368C147.44 74.428 147.74 75.256 148.268 75.808C148.82 76.336 149.516 76.6 150.356 76.6C151.532 76.6 152.372 76.072 152.876 75.016H160.4C160.088 76.408 159.476 77.656 158.564 78.76C157.676 79.84 156.548 80.692 155.18 81.316C153.812 81.94 152.3 82.252 150.644 82.252C148.652 82.252 146.876 81.832 145.316 80.992C143.78 80.152 142.568 78.952 141.68 77.392C140.816 75.832 140.384 73.996 140.384 71.884C140.384 69.772 140.816 67.948 141.68 66.412C142.544 64.852 143.744 63.652 145.28 62.812C146.84 61.972 148.628 61.552 150.644 61.552C152.636 61.552 154.4 61.96 155.936 62.776C157.472 63.592 158.672 64.768 159.536 66.304C160.4 67.816 160.832 69.604 160.832 71.668ZM153.632 69.904C153.632 69.04 153.344 68.368 152.768 67.888C152.192 67.384 151.472 67.132 150.608 67.132C149.744 67.132 149.036 67.372 148.484 67.852C147.932 68.308 147.572 68.992 147.404 69.904H153.632ZM162.567 71.884C162.567 69.796 162.939 67.972 163.683 66.412C164.451 64.852 165.483 63.652 166.779 62.812C168.099 61.972 169.563 61.552 171.171 61.552C172.563 61.552 173.763 61.828 174.771 62.38C175.779 62.932 176.559 63.676 177.111 64.612V61.804H184.167V82H177.111V79.192C176.559 80.128 175.767 80.872 174.735 81.424C173.727 81.976 172.539 82.252 171.171 82.252C169.563 82.252 168.099 81.832 166.779 80.992C165.483 80.152 164.451 78.952 163.683 77.392C162.939 75.808 162.567 73.972 162.567 71.884ZM177.111 71.884C177.111 70.588 176.751 69.568 176.031 68.824C175.335 68.08 174.471 67.708 173.439 67.708C172.383 67.708 171.507 68.08 170.811 68.824C170.115 69.544 169.767 70.564 169.767 71.884C169.767 73.18 170.115 74.212 170.811 74.98C171.507 75.724 172.383 76.096 173.439 76.096C174.471 76.096 175.335 75.724 176.031 74.98C176.751 74.236 177.111 73.204 177.111 71.884ZM191.608 82.288C190.36 82.288 189.352 81.952 188.584 81.28C187.84 80.584 187.468 79.708 187.468 78.652C187.468 77.596 187.84 76.72 188.584 76.024C189.352 75.328 190.36 74.98 191.608 74.98C192.832 74.98 193.816 75.328 194.56 76.024C195.328 76.72 195.712 77.596 195.712 78.652C195.712 79.684 195.328 80.548 194.56 81.244C193.816 81.94 192.832 82.288 191.608 82.288Z" fill="#343434"/>
</svg>
